<mxfile host="app.diagrams.net" modified="2022-07-19T09:54:13.286Z" agent="5.0 (Macintosh; Intel Mac OS X 10_15_7) AppleWebKit/537.36 (KHTML, like Gecko) Chrome/103.0.0.0 Safari/537.36" etag="vhDO3lLQt0auBqMK6wZk" version="20.0.4" type="github">
  <diagram id="13UU3l9YjHJ52uqp2OQv" name="Page-1">
    <mxGraphModel dx="874" dy="588" grid="1" gridSize="10" guides="1" tooltips="1" connect="1" arrows="1" fold="1" page="1" pageScale="1" pageWidth="827" pageHeight="1169" math="0" shadow="0">
      <root>
        <mxCell id="0" />
        <mxCell id="1" parent="0" />
        <mxCell id="6nXCHDOI8Ua6VVWHlbUO-3" value="" style="endArrow=none;html=1;rounded=0;" edge="1" parent="1">
          <mxGeometry width="50" height="50" relative="1" as="geometry">
            <mxPoint x="150" y="400" as="sourcePoint" />
            <mxPoint x="220" y="400" as="targetPoint" />
          </mxGeometry>
        </mxCell>
        <mxCell id="6nXCHDOI8Ua6VVWHlbUO-4" value="" style="endArrow=none;html=1;rounded=0;" edge="1" parent="1">
          <mxGeometry width="50" height="50" relative="1" as="geometry">
            <mxPoint x="240" y="400" as="sourcePoint" />
            <mxPoint x="310" y="400" as="targetPoint" />
          </mxGeometry>
        </mxCell>
        <mxCell id="6nXCHDOI8Ua6VVWHlbUO-5" value="S&lt;sup&gt;i-1&lt;/sup&gt;" style="text;html=1;align=center;verticalAlign=middle;resizable=0;points=[];autosize=1;strokeColor=none;fillColor=none;" vertex="1" parent="1">
          <mxGeometry x="120" y="380" width="40" height="30" as="geometry" />
        </mxCell>
        <mxCell id="6nXCHDOI8Ua6VVWHlbUO-6" value="S&lt;sup&gt;i&lt;/sup&gt;" style="text;html=1;align=center;verticalAlign=middle;resizable=0;points=[];autosize=1;strokeColor=none;fillColor=none;" vertex="1" parent="1">
          <mxGeometry x="306" y="383" width="30" height="30" as="geometry" />
        </mxCell>
        <mxCell id="6nXCHDOI8Ua6VVWHlbUO-7" value="T&lt;sup&gt;i&lt;/sup&gt;" style="text;html=1;align=center;verticalAlign=middle;resizable=0;points=[];autosize=1;strokeColor=none;fillColor=none;" vertex="1" parent="1">
          <mxGeometry x="214" y="381" width="30" height="30" as="geometry" />
        </mxCell>
        <mxCell id="6nXCHDOI8Ua6VVWHlbUO-8" value="A" style="text;html=1;align=center;verticalAlign=middle;resizable=0;points=[];autosize=1;strokeColor=none;fillColor=none;" vertex="1" parent="1">
          <mxGeometry x="180" y="354" width="30" height="30" as="geometry" />
        </mxCell>
        <mxCell id="6nXCHDOI8Ua6VVWHlbUO-9" value="B" style="text;html=1;align=center;verticalAlign=middle;resizable=0;points=[];autosize=1;strokeColor=none;fillColor=none;" vertex="1" parent="1">
          <mxGeometry x="238" y="354" width="30" height="30" as="geometry" />
        </mxCell>
        <mxCell id="6nXCHDOI8Ua6VVWHlbUO-10" value="" style="endArrow=classic;html=1;rounded=0;exitX=1;exitY=0.567;exitDx=0;exitDy=0;exitPerimeter=0;" edge="1" parent="1">
          <mxGeometry width="50" height="50" relative="1" as="geometry">
            <mxPoint x="203" y="368.0099999999999" as="sourcePoint" />
            <mxPoint x="243" y="368" as="targetPoint" />
          </mxGeometry>
        </mxCell>
        <mxCell id="6nXCHDOI8Ua6VVWHlbUO-11" value="" style="ellipse;whiteSpace=wrap;html=1;aspect=fixed;" vertex="1" parent="1">
          <mxGeometry x="127" y="416" width="10" height="10" as="geometry" />
        </mxCell>
        <mxCell id="6nXCHDOI8Ua6VVWHlbUO-12" value="" style="ellipse;whiteSpace=wrap;html=1;aspect=fixed;" vertex="1" parent="1">
          <mxGeometry x="97" y="443" width="10" height="10" as="geometry" />
        </mxCell>
        <mxCell id="6nXCHDOI8Ua6VVWHlbUO-13" value="" style="ellipse;whiteSpace=wrap;html=1;aspect=fixed;" vertex="1" parent="1">
          <mxGeometry x="156" y="443" width="10" height="10" as="geometry" />
        </mxCell>
        <mxCell id="6nXCHDOI8Ua6VVWHlbUO-14" value="" style="ellipse;whiteSpace=wrap;html=1;aspect=fixed;" vertex="1" parent="1">
          <mxGeometry x="80" y="473" width="10" height="10" as="geometry" />
        </mxCell>
        <mxCell id="6nXCHDOI8Ua6VVWHlbUO-15" value="" style="ellipse;whiteSpace=wrap;html=1;aspect=fixed;" vertex="1" parent="1">
          <mxGeometry x="110" y="473" width="10" height="10" as="geometry" />
        </mxCell>
        <mxCell id="6nXCHDOI8Ua6VVWHlbUO-18" value="" style="ellipse;whiteSpace=wrap;html=1;aspect=fixed;" vertex="1" parent="1">
          <mxGeometry x="140" y="473" width="10" height="10" as="geometry" />
        </mxCell>
        <mxCell id="6nXCHDOI8Ua6VVWHlbUO-19" value="" style="ellipse;whiteSpace=wrap;html=1;aspect=fixed;" vertex="1" parent="1">
          <mxGeometry x="170" y="473" width="10" height="10" as="geometry" />
        </mxCell>
      </root>
    </mxGraphModel>
  </diagram>
</mxfile>
